/* XPM */
static char *c9xqv_d4vss[] = {
/* columns rows colors chars-per-pixel */
"64 64 221 2 ",
"   c #0056B5",
".  c #0259B6",
"X  c #0157B8",
"o  c #015CBB",
"O  c #0A5DBA",
"+  c #0B5DB6",
"@  c #0360BE",
"#  c #0B62BE",
"$  c #1464BD",
"%  c #1B65BE",
"&  c #1B65B9",
"*  c #2366BB",
"=  c #2C6CBE",
"-  c #2667B8",
";  c #346DB6",
":  c #3D73BE",
">  c #4B6B9B",
",  c #456698",
"<  c #536E9C",
"1  c #496EA0",
"2  c #4A74AB",
"3  c #5678A8",
"4  c #4475B3",
"5  c #4577BB",
"6  c #5B7FB4",
"7  c #537DBC",
"8  c #627FB4",
"9  c #015FC2",
"0  c #0464C3",
"q  c #0A66C4",
"w  c #0668C7",
"e  c #0C69C6",
"r  c #0669C9",
"t  c #0C6CCB",
"y  c #0766C9",
"u  c #1366C1",
"i  c #146AC5",
"p  c #1B6AC3",
"a  c #126DCB",
"s  c #1B6EC9",
"d  c #1B66C0",
"f  c #1471CE",
"g  c #1B71CD",
"h  c #146ED0",
"j  c #0F71D0",
"k  c #1473D1",
"l  c #1A75D3",
"z  c #1D79D6",
"x  c #1E7BD8",
"c  c #246BC3",
"v  c #2B6EC2",
"b  c #316EC3",
"n  c #2972C7",
"m  c #3372C4",
"M  c #3A74C4",
"N  c #3276C9",
"B  c #3B7ACA",
"V  c #3878CA",
"C  c #227AD5",
"Z  c #2B7DD5",
"A  c #237DD9",
"S  c #287CDA",
"D  c #337FD4",
"F  c #4579C5",
"G  c #5A84BD",
"H  c #6889B8",
"J  c #7591BC",
"K  c #7C96BF",
"L  c #6080AF",
"P  c #2680DB",
"I  c #2C83DD",
"U  c #3385DC",
"Y  c #3B86DA",
"T  c #3489DE",
"R  c #3C8CDE",
"E  c #3781D5",
"W  c #2F87E0",
"Q  c #3187E1",
"!  c #358CE1",
"~  c #398EE2",
"^  c #3C92E4",
"/  c #3790E2",
"(  c #4A81C9",
")  c #5185CD",
"_  c #5887C6",
"`  c #428CDC",
"'  c #498EDA",
"]  c #4789D6",
"[  c #4391DF",
"{  c #4B92DD",
"}  c #5394DC",
"|  c #5C96DA",
" . c #5398DF",
".. c #5B9ADE",
"X. c #5491D7",
"o. c #538FD8",
"O. c #648BC3",
"+. c #639CDD",
"@. c #6A9BD8",
"#. c #7595C3",
"$. c #6CA2DE",
"%. c #66A0DF",
"&. c #74A4DC",
"*. c #7CABDE",
"=. c #4195E5",
"-. c #4B96E1",
";. c #4298E7",
":. c #4B9BE5",
">. c #459BE8",
",. c #4A9EEA",
"<. c #4496E8",
"1. c #569DE3",
"2. c #448EE0",
"3. c #4DA2EB",
"4. c #56A1E6",
"5. c #5DA3E6",
"6. c #53A5EC",
"7. c #5AA5EA",
"8. c #56A9EE",
"9. c #5AABEE",
"0. c #5EAEF0",
"q. c #5FB0F1",
"w. c #63A3E3",
"e. c #69A7E3",
"r. c #63ACEB",
"t. c #6BACE9",
"y. c #6BA9E4",
"u. c #74ABE3",
"i. c #7BADE1",
"p. c #72A7E1",
"a. c #64B1EF",
"s. c #6DB3ED",
"d. c #73B4EC",
"f. c #7AB4EA",
"g. c #7ABAEE",
"h. c #77B4E9",
"j. c #61AFF1",
"k. c #64B3F1",
"l. c #6AB6F2",
"z. c #6CBAF3",
"x. c #72BDF4",
"c. c #7BBDF1",
"v. c #76C1F5",
"b. c #7BC4F6",
"n. c #7EC6F8",
"m. c #7FC8F8",
"M. c #8099C0",
"N. c #83ADDD",
"B. c #86B0DF",
"V. c #8BB2DE",
"C. c #93B6DD",
"Z. c #96B8DF",
"A. c #9CBBDD",
"S. c #9CB8D7",
"D. c #88A0C6",
"F. c #A1BEDD",
"G. c #81ADE0",
"H. c #84B2E3",
"J. c #8BB4E2",
"K. c #8BB8E4",
"L. c #83BCEC",
"P. c #8ABCEA",
"I. c #82B7E9",
"U. c #95BBE4",
"Y. c #9BBDE3",
"T. c #93BBE6",
"R. c #84BFF0",
"E. c #A1BFE1",
"W. c #ADC5DE",
"Q. c #A6C0DE",
"!. c #B6C9DE",
"~. c #8AC1EF",
"^. c #94C2EB",
"/. c #9DC6EC",
"(. c #9DC0E6",
"). c #81C6F6",
"_. c #85C9F7",
"`. c #8ACBF7",
"'. c #81C7F8",
"]. c #84CAF8",
"[. c #8BCDF9",
"{. c #8CC5F2",
"}. c #90CFF9",
"|. c #97C9F1",
" X c #8ED0FA",
".X c #93D2FB",
"XX c #9AD6FB",
"oX c #9ED8FD",
"OX c #A4C3E3",
"+X c #ABC5E2",
"@X c #AECAE5",
"#X c #A4CAEC",
"$X c #ABCBEB",
"%X c #A6C7E9",
"&X c #B4CBE3",
"*X c #BBCEE3",
"=X c #B2CEEA",
"-X c #B0C6E0",
";X c #BED1E4",
":X c #B5D0EA",
">X c #BBD2EA",
",X c #A5CDF0",
"<X c #A3D9FD",
"1X c #ABDAFA",
"2X c #A2D7FB",
"3X c #B4DAF6",
"4X c #B6DBF7",
"5X c #C3D3E4",
"6X c #C9D6E5",
"7X c #C1D5E9",
"8X c #CBDAEA",
"9X c #CAD9E7",
"0X c #D3DCE5",
"qX c #D3DEEB",
"wX c #D8DEE6",
"eX c #DAE0E7",
"rX c #DBE2EA",
"tX c #D6E0EC",
"yX c #E1E6EB",
"uX c #E6E9ED",
"iX c #E7EBF0",
/* pixels */
", , , > < < < 3 H M.J L L 6 F F & + - G : : G : = % p c - v * % m c $ $ # O O n F M V c v c b b c O O 9 X X X X X X .           ",
", > > < < 3 L H J M.D.H L 6 7 = + + @ = & = E = $ @ # # & E V c m M M = u 0 u M m c m c d 9 $ c O X o o o o o o o X o X . .     ",
"> > 1 3 3 L L H J K M.M.8 6 5 $ @ + # $ $ % % # $ @ # # $ N E p u c ) B u i p m v q p d 9 O 9 O 0 O 9 o o @ o o o X X X X X X X ",
"2 2 2 2 2 2 L L H J J J O.F 4 = # @ # $ % # @ # $ e # 0 # = = % e c B m p c c V p 0 q 0 q 9 9 q # 9 o 9 o 0 o o o o @ o o o X X ",
"4 4 2 ; 1 2 2 G G H J O.#.O.b c @ # $ $ $ @ @ # e e @ e @ p = i h F V i N F o.) i 0 e 0 0 0 9 q 0 0 @ @ 0 o o 0 o o 9 o o o o o ",
"- - ; ; ; ; 2 3 H H H H O._ b q @ # # # # @ j @ 0 # e w w i i n N F N n B F @.o.a 0 0 e 0 y q q 0 0 0 0 0 0 0 0 0 0 @ o 0 o 9 o ",
"+ + & - - ; 4 G G G G _ O.F v O # a a @ @ P j @ e i e e e e e n F ] N n D F F B i e e e e 0 q q q q y 0 0 0 0 0 0 0 o 0 0 o o 9 ",
". . + # - - ; : 5 : M 5 F b u u & n & # @ @ @ @ e e i i i t e s B B n c h D F B t t t r e t e q e q y 0 0 0 0 0 0 0 0 0 0 9 0 9 ",
". # & @ @ & ; : : = : V : * i p f = % f $ r # j $ g P $ P # P $ s n C s e g V g t i t f a a a i e e r r e e 0 e 0 0 0 0 0 0 0 0 ",
"@ @ & # # % = = = i = = n i e e $ f j # t t t @ P t @ @ @ j @ t a s a a f f g f f t t n g t a a t a t y t r r r 0 r r 0 0 r 0 0 ",
". @ @ # # $ $ i p % c i p i e e @ # t # t t t @ @ j t P P @ t j f g h f f f i f f f j j f a t f a a a t a t r r r r r w r y y 0 ",
"@ @ @ @ @ w 0 0 e i n e e i e e P $ f j t t t P j j t t r P r P f k g k f f f f j k f j g f f f h s a t a a h t t r t t r y y y ",
"@ @ @ @ 0 0 0 w e e s i e e a a f t t t P r # j # j j P # P r t k l E E g l n P P f f f f k k g j h a k h h j t j r j r r r r r ",
"@ @ @ 0 0 0 r e e t i a a a a a t # P # @ r P r P j P @ P t P t C Z E E N P E X.] f z f l l g l h k k k k h j j t j t j t t r r ",
"0 0 0 w 0 w w e e t t t f a a a t P P @ P r r P @ P r P j P P g E Z l l z l E | @.' E C l l l l l l l k l h k k j j j j r j j j ",
"0 0 0 w w t r t t t a t a f f f f t j P r P P r P P @ P j P j P C z z C I E Z @.S.Q.N.C l z z l l l C l l z k k k k k k k r h h ",
"r r r r t r t t a a k a g h s k k l l l g k l l l z l g P l P k l C S l o.C.o.+.F.6X*X' z C C C C C C l l l l l l l h k h k j h ",
"r r r t t t j f a f k k l k l l k C l l z C z C z P P P P P P g Y N.+.o.V.0X6X-X*X5X+X@.Y C A C C o.i.@.o.] x z l A l l l l h l ",
"r t t t t a j f k h g l l C l s C D C z z z C z z Y E z k P P P +.5X!.6X5X!.*X5X!.F.C.+...' S Y -.E.&X*XE.E.Y z x S C C A h z h ",
"t t t j j j f f k k l l l l C C D D C C A C I E ..Z.W.&.[ P P P 1.*X6X5X5XV.E.-XF.S.*.@.+.+. ...J.E.E.+XE.Y.+.U A A D S S x x x ",
"t j j j j k k k k l C z C C B.Q.F.&X+.x C X.N.&.*XuXuXuX>XB.:.I o.J.V.*X-X+X-X&X-XZ.N.B.&.%. .` $.J.J.G.G.&.' U S D ' Y A A x l ",
"j j j j k k k z C k o.@.| X.(.+X&X9X+.C N.+X5X5X6XyXrXeXeXrX;XY.U.1.&.*X!.*X+XE.-X+XC.Y.i.1.R U { p.G.+.+.1.` U Q D Q Q S A x S ",
"j j j k k k l z C z &.S.| ] V.Q.G.OXV.E.9XeXwXeXuXyXrXeXeXtXrXyXtXu.{ u.U.U.H.1.G.J.u.&. .[ Q Q ~ 1.G.$.1.2.Q S S W S W S A S S ",
"j j k k z z x C Z ' A.N.X.&.A.C.@.B.&XwXeX0X0XwXrXrXeXeXeXrXrXeX8XJ.2.-.e.w.-.T =.-.-.-.T =.! ! ! { 1.' ` D Q Q Q Q W W S S A S ",
"k k k x z z A A E ` +.X.} *.B.V.+...U.5X6X6X5X7XeXeX6X6X0X0X9X;X7X>X%XT.w.<.~ ~ ! 2.~ ~ ~ ~ ! ! ! Q ~ ! ~ Q Q Q 2.Q I I I I I S ",
"l x x x x x A A P Y R Y R { *.$. .+.A.!.&X;X&X+X;X6X*X*X;X;X@X@X6XqXiX8XH.H.J.u.~ ~ ~ ~ ~ ~ ~ ~ ~ ~ ~ Q ~ ! ! ! ~ W Q Q Q U Q Q ",
"x x x x x A A I ` Y U T U U  .{ T $.C.N.i.H.i.B.Y.W.W.W.@X*X@X*X0X0XrXqXE.&X=Xp.^ ~ ^ ^ ^ ^ ~ / ^ ! Q ^ ~ ! ! Q Q Q ! Q Q W W S ",
"x x x x P P P  .V. .R U T T R R R { { =.[ ~ y.K.i.V.V.B.A.@X*X@X5X5XqXtXE.E.J.:.^ ^ ^ ^ ^ ^ ^ ^ ^ ^ ^ ! ^ ^ ! ! ~ ! ! Q ! Q Q Q ",
"x x A S P P I &.C.B.%.R U T T ! ~ ! T ~ ~ ^ OX@XZ.C.Z.*.S.W.!.W.-X-X5X5XT.H.T.w.5.5.<.^ ^ ^ ^ ^ ^ ^ ^ ^ ^ ^ ^ ^ ^ Q ^ Q ! ! Q Q ",
"A A S I U =.[  . .[ [ ^ ^ / R ^ ~ / ~ ~ ~ 4.(.+XS.S.S.A.A.A.F.F.E.U.+XE.=X7XtX=XI.E.T.1.>.>.>.^ ^ <.<.^ <.^ ^ ^ ^ ^ ^ ~ ~ ! ! ~ ",
"W W W +.N.$.R T ! ! / ! / ^ ~ / / =.=.^ [ :.$.C.A.A.V.V.V.*.i.i.e.N.J.F.5XwXqXqX%XU.@Xd.^ >.>.<.>.^ ^ <.<.^ ^ ^ ^ ^ ^ ^ ^ ! ~ ~ ",
"W A U -. .` ! ! ! ! ! / / / / ^ =.:.e.w.:.:.4.e.y.%.e.u.w.4.5.5.K.=XY.G.E.*X5X5X>XP.T.t.j.,.>.>.>.>.>.>.^ <.<.<.^ <.^ ^ ^ ^ ^ ~ ",
"W P W / / / / / / / / / / ;.;.y.u.h.Y.u.4.[ 3.:.:.;.4.^.4.3.8.m.yXiXrXT.I.J.T.OXOX%XP.r.d.,.,.,.,.>.>.>.<.<.<.<.>.<.<.<.^ ^ <.^ ",
"W W / P / / / / / / / / ;./ :.g.U.@XK.5.6.;.5.h.:.4.g.:X^.OXK.tXiXyXeX8X%Xt.y.h.h.f.d.4.,.,.3.,.,.,.,.>.,.<.<.>.>.<.<.<.<.^ <.^ ",
"/ / / / / / / / / ;./ ;.;./ >.q.K.h.4.;.3.:.5.K.y.8.h.(.;X0X:XrXiXyXqXqX=Xr.7.7.g.#Xd.3.4.3.3.3.3.3.3.,.,.,.,.,.>.>.3.6.<.<.<.<.",
"W / / / / / / ;./ ;.;.;.;.;.>.3.r.5.3.3.3.4.f.^.r.y.h.|.@X@X7XrXyXwX9X*X^.t.d.8.#XiX:X8.6.3.3.6.3.3.3.3.3.,.,.,.,.,.3.,.,.>.<.<.",
"/ / / ;./ ;./ / ;.;.;.;.;.>.>.>.4.3.5.a.w.8.d.K.h.^.9X0X9X;X;X0XeX9X@XC.^.^.d.d.$XtX8X8.3.3.8.3.6.6.6.6.6.3.3.3.,.,.,.,.,.,.,.<.",
"/ / / ;./ ;.>.;.;.>.>.>.;.;.3.>.3.3.h.f.h.u.#X:X@X:X8X9X:X:X3X0X5X+XF.S.OX=X/.#X,X9X7Xc.8.8.8.8.8.8.8.6.6.6.6.6.6.6.6.3.3.,.,.,.",
"/ / ;.;.;.;.;.>.>.>.>.>.3.3.3.3.3.w.y.a.y.b./.#X#X:X:X7X;X,X:X9X$X^.I.f.d.^./.,X>X>X#XL.k.0.8.8.0.8.8.8.6.8.6.8.6.6.6.6.3.,.3.,.",
";.;.;.;.;.>.>.;.3.>.3.3.3.3.3.3.6.s.r.9.a.a.h.y.v.{.>X0X9X:X9X;X@X/.s.9.9.g.L.L./.P.a.a.0.0.q.9.0.8.0.8.8.8.8.8.6.6.6.6.6.6.6.6.",
";.;.>.>.>.>.3.>.3.3.3.3.3.3.3.3.q.a.8.8.8.8.9.9.a.h.W.;X;X7X9X;X#X~.d.~.s.a.a.s.v.s.a.q.q.q.q.q.0.0.0.0.9.9.9.8.9.9.8.8.6.6.6.6.",
">.>.>.3.>.3.3.3.3.3.3.3.3.8.8.8.9.9.8.8.9.d.h.v.s.s.q.z.v.v.|.A.h.|.^.~.~.v.l.l.a.a.k.a.k.k.q.q.j.j.0.0.0.9.j.9.9.9.9.8.9.6.6.6.",
">.3.>.3.3.3.3.3.8.3.3.8.8.8.8.8.8.9.q.s.v.^./.v.a.v.z.q.q.q.z.z.k.~.v.d.v.l.v.k.l.k.k.k.k.k.k.a.k.j.k.j.j.j.j.j.j.9.9.9.9.9.9.7.",
"3.3.3.3.3.3.3.8.3.8.8.8.8.8.q.8.a.a.q.a.t.v.h.g.v.z.q.q.l.a.q.a.k.k.k.l.k.k.k.q.l.l.l.l.k.l.l.l.l.k.k.k.j.j.j.j.j.j.j.j.9.9.9.7.",
"3.3.3.3.8.3.8.8.8.8.8.8.q.8.q.q.q.q.q.q.s.a.v.v.z.q.q.q.q.q.a.z.l.l.q.k.k.v.q.v.v.l.l.l.z.l.z.l.l.l.l.k.k.k.k.k.j.j.j.j.j.j.j.9.",
"6.8.8.8.8.8.8.8.8.8.q.8.q.q.q.q.q.q.q.v.v.a.s.s.z.z.z.z.z.z.z.z.k.v.v.q.q.v.v.k.l.v.z.|.|.~.z.l.l.z.l.z.l.l.l.k.l.l.j.j.j.j.j.j.",
"8.8.8.8.8.8.q.8.q.q.q.q.q.q.q.k.l.q.k.l.9.v.v.v.z.z.z.z.z.z.z.z.v.k.v.v.v.k.v.v.v.v.v.|.$X{.v.z.z.z.z.z.l.l.l.l.l.l.l.l.l.j.j.j.",
"8.8.8.q.q.q.q.q.q.q.q.k.q.q.q.l.q.v.k.q.v.k.v.a.z.z.v.z.z.v.z.z.l.v.v.k.v.v.v.v.v.v.v.v.b.b.v.v.x.x.x.x.x.x.l.x.l.l.l.l.l.j.l.j.",
"9.9.q.q.q.q.q.k.k.k.k.k.k.k.v.q.z.z.z.z.z.z.z.v.z.v.z.v.v.v.v.v.v.v.v.v.v.v.v.v.b.v.v.v.v.v.v.v.v.v.v.x.x.x.x.z.z.z.z.z.z.l.l.l.",
"9.q.a.a.a.q.a.k.v.k.k.k.v.k.k.v.z.z.z.v.v.v.v.v.v.v.v.v.v.v.v.v.v.v.v.v.v.v.b.b.b.b.m.v.v.v.v.v.v.v.v.v.b.x.x.x.x.x.x.x.z.z.l.l.",
"a.q.a.k.q.a.a.l.a.v.a.a.k.v.v.v.z.v.v.v.v.v.v.v.v.v.v.v.v.b.m.m.v.v.v.n.b.b.n.n.m.m.n.n.n.n.n.b.b.b.b.v.b.x.x.x.x.x.x.x.x.z.x.l.",
"a.q.v.a.v.a.v.l.v.k.v.v.v.k.v.v.v.v.v.v.v.v.m.v.m.v.m.m.b.m.m.m.n.n.n.n.b.m.m.m.m.m.m.n.n.n.m.m.n.n.n.n.c.n.n.b.x.n.x.x.x.x.x.x.",
"a.l.a.v.a.v.v.l.z.z.v.v.v.v.v.v.b.b.b.b.m.m.m.m.m.m.m.m.m.m.m.m.m.m.m.m.m.m.].].m.].].].m.m.m.m.n.n.n.n.n.n.'.c.n.x.n.c.c.x.x.x.",
"v.s.l.v.a.v.s.v.v.v.v.g.v.v.v.v.m.m.m.m.m.m.m.m.m.m.m.m. Xm.m.m.m.m.].m.].].].].].].].].].m.].].].].].].].].'.'.n.n.n.x.c.c.c.c.",
"l.v.l.s.v.v.v.v.v.v.b.b.b.b.b.m.m.m.m.m.m.`.m.m.m.m.m.m.m.m.m.m.].m.].].]. X]. X].[. X X].[.].[.].].].].].].].].'.'.n.n.'.x.c.n.",
"v.s.v.v.v.v.v.v.b.b.b.b.m.m.m.m.m.m.`.`.m.`. Xm.m. X.X X.X X.X X X X X X]. X X X X[. X X[.[.[.[.[.[.[.[.].].].].].'.'.].'.].n.c.",
"g.v.g.v.g.b.b.b.m.m.m.m._.m.m.`.m. Xm.m. X X X X.Xm..Xm. X X X X X X X X X X X.X X.X X.X X X X X[.}.}.}.[.[.[.[.].].].].'.'.'.R.",
"v.b.b.g.m.b.m.m._._._._.`.`.`.`. Xm..X.X X X X.X.X.X.X.X.X X.X.X.X X.X.X X.X.X.X.X.X.X.X.X.X.X X}.}.}.}.}.}.[.[.[.[.[.].[.{.].'.",
"g.m.m.m.m.m.m.`._._.`.`.`.`. X`. X X X X X.X X.X.X.X.X.X.X.X X.X.X.X.X.X.X.X.X.X.XXX.X.X.X X.X.X.X}.}.}..X.X}.}.}.}.[.[.`.[.].].",
"m.m.m.~.m.`.`.`.^.`. X`. X X X X X.X.X.X.X.X.X.X.XoX.X.X.XoXoXoXXX.XXXXXoXoX.XoXXXoXoXXXoXXXXX.XXXXXXX.XXX.X.X}.}.}.}.}.[.[.[.[.",
"m.m._._.`.`.`.`. X X X X.X.X.X.X.X.X.X.X.XoXoXoXoX.XoX.XoXoXoXoXoXoXoXoXoXoXoXoXoX<X<XoXXXXXXXXXXXXXXXXXXXXX.X.X.X.X.X}.[.}.}.}.",
"~.`.`.|.`.`. X X X.X|..X.X.XXXXX.X.XoXoXoXoXoXoXoXoXoXoX<X<XoXoXoXoXoXoXoXoXoXoX<X1X3X3X<X2X2X2X2X2XXXXXXXXXXXXXXX.XXX}..X.X}.}.",
"`.`.`.`.|.`. X.XXX|.XXXXXXXXXXXXoXoXoXoXoXoXoX<X<XoXoXoX<X<X<X<X<X<X<X1X1X1X<X4X3X7X4X4X3X1X<X1X1X<X2X2X2X2X2XXX2XXXXXXX|..X.X|.",
"`. X X|..X.X.X.XXXXX|.XXXXXXXXXXoXoXoXoXoXoX<X<X<X<XoXoX<X<X1X<X<X<X<X1X4X1X1X4X3X3X1X4X4X1X<X1X1X<X<X<X2X2X2X2X2XXXXXXX2XXXXXXX"
};
