/* XPM */
static char *_5bxh_o48tf[] = {
/* columns rows colors chars-per-pixel */
"64 64 232 2 ",
"   c #34441B",
".  c #384B1E",
"X  c #3D501E",
"o  c #3D4F23",
"O  c #3D4724",
"+  c #3D5422",
"@  c #4B5B1D",
"#  c #475C1E",
"$  c #444E24",
"%  c #435424",
"&  c #4A5620",
"*  c #455A24",
"=  c #4A5C25",
"-  c #44532A",
";  c #48542A",
":  c #455B2B",
">  c #4B5D2C",
",  c #515D2D",
"<  c #525C23",
"1  c #4C5C33",
"2  c #435A30",
"3  c #515E32",
"4  c #545F3C",
"5  c #4C6324",
"6  c #4C622C",
"7  c #4D6A2B",
"8  c #476022",
"9  c #526224",
"0  c #52642C",
"q  c #546B2D",
"w  c #5A6C2C",
"e  c #5A652B",
"r  c #5C722C",
"t  c #57732E",
"y  c #4D6232",
"u  c #4E653B",
"i  c #4F6831",
"p  c #536433",
"a  c #5B6333",
"s  c #546B33",
"d  c #5A6C34",
"f  c #54643A",
"g  c #5A663B",
"h  c #566B3A",
"j  c #5B6C3B",
"k  c #547034",
"l  c #5C7335",
"z  c #5C7933",
"x  c #57713C",
"c  c #5C733C",
"v  c #5E793B",
"b  c #636A2B",
"n  c #647B2C",
"m  c #61732E",
"M  c #636E35",
"N  c #636E3B",
"B  c #666839",
"V  c #627336",
"C  c #6B7533",
"Z  c #647A35",
"A  c #63743C",
"S  c #69733C",
"D  c #647B3C",
"F  c #6A7C3C",
"G  c #6A7C35",
"H  c #737C3C",
"J  c #757839",
"K  c #4D5C42",
"L  c #5D6D42",
"P  c #586741",
"I  c #5D7342",
"U  c #5C7349",
"Y  c #5A7442",
"T  c #636D43",
"R  c #646C46",
"E  c #637443",
"W  c #6A7444",
"Q  c #647A43",
"!  c #6A7C44",
"~  c #65754A",
"^  c #6A754A",
"/  c #657B4A",
"(  c #6B7C4B",
")  c #737D43",
"_  c #7B7F40",
"`  c #727D4B",
"'  c #7A7C4A",
"]  c #707642",
"[  c #637351",
"{  c #6D7C52",
"}  c #6C7B58",
"|  c #677D51",
" . c #717E52",
".. c #777E58",
"X. c #777F61",
"o. c #807F43",
"O. c #817E5B",
"+. c #6C8234",
"@. c #64823C",
"#. c #6C833D",
"$. c #6D8A3D",
"%. c #658435",
"&. c #73833C",
"*. c #738B3E",
"=. c #7A8D3E",
"-. c #748338",
";. c #668244",
":. c #6C8344",
">. c #6F8A45",
",. c #65814B",
"<. c #6D824B",
"1. c #6E8A4B",
"2. c #728444",
"3. c #7A8444",
"4. c #738B44",
"5. c #7A8B44",
"6. c #72844C",
"7. c #7A844A",
"8. c #748B4C",
"9. c #7A8C4C",
"0. c #6C924D",
"q. c #759245",
"w. c #7B9246",
"e. c #75914B",
"r. c #7C924D",
"t. c #7D994B",
"y. c #769946",
"u. c #6E8351",
"i. c #6E8755",
"p. c #738453",
"a. c #7A8453",
"s. c #758A53",
"d. c #7B8C54",
"f. c #74845A",
"g. c #79855B",
"h. c #758A59",
"j. c #7B8C5A",
"k. c #769154",
"l. c #7C9254",
"z. c #7E9954",
"x. c #7D925B",
"c. c #7E9A59",
"v. c #779457",
"b. c #7B8C62",
"n. c #7B8964",
"m. c #7F9262",
"M. c #83863C",
"N. c #808C43",
"B. c #838D4C",
"V. c #858447",
"C. c #849447",
"Z. c #83944D",
"A. c #89964E",
"S. c #849A4D",
"D. c #8A9C4E",
"F. c #849A46",
"G. c #828E53",
"H. c #80865B",
"J. c #828E5C",
"K. c #8B8B5A",
"L. c #839454",
"P. c #8B9355",
"I. c #859B55",
"U. c #8A9B55",
"Y. c #83945C",
"T. c #89955C",
"R. c #849B5C",
"E. c #8B9C5C",
"W. c #939B55",
"Q. c #929C5B",
"!. c #929752",
"~. c #86A24D",
"^. c #89A44E",
"/. c #8BA454",
"(. c #85A25A",
"). c #8CA15C",
"_. c #8DAC5C",
"`. c #81A054",
"'. c #93A45D",
"]. c #94AB5D",
"[. c #98A659",
"{. c #98B05E",
"}. c #828D61",
"|. c #848A63",
" X c #849563",
".X c #8A9663",
"XX c #869A63",
"oX c #8B9C63",
"OX c #859669",
"+X c #8B956A",
"@X c #859969",
"#X c #8C9D6B",
"$X c #929D63",
"%X c #929E6A",
"&X c #989F63",
"*X c #8D9B71",
"=X c #8B9875",
"-X c #939C75",
";X c #8CA363",
":X c #8DA26A",
">X c #8CA863",
",X c #93A465",
"<X c #9BA464",
"1X c #93AB64",
"2X c #9CAA63",
"3X c #93A46C",
"4X c #9AA36D",
"5X c #94AA6C",
"6X c #9BAC6A",
"7X c #9CB26C",
"8X c #99B46A",
"9X c #8FA273",
"0X c #93A471",
"qX c #9CA574",
"wX c #95AA72",
"eX c #9BAD72",
"rX c #9BA679",
"tX c #9DAC7C",
"yX c #9DB272",
"uX c #9DB079",
"iX c #A3AA67",
"pX c #A5B66A",
"aX c #A3AD76",
"sX c #A4B374",
"dX c #AABA75",
"fX c #A3B57C",
"gX c #A5B874",
"hX c #B1C379",
"jX c #A4B482",
"kX c #A9B783",
"lX c #B5BC87",
"zX c #B1C389",
/* pixels */
"r.2.! z.e.^ W 7.6.x.h 6 oX<.j.+XI i.c.).b.( oX).2., 3.{.iX%X.X6XP.&.A.$XG.2.T.S d p.I z e.^.%.#.<.s > 9.=.F.1XD.@ 2.h.Y |  X:XI.",
"s.p.Y / Q ! N Y.8.c.Q d ! @X-X} h y Q 3XJ.! ,XI.r.x.'.[.A.A E Y.oXB.C.7.) P..Xa = A <.v 1.@.D 9.l q s D r.t.1X5.9 ! 7 s./ | / s.",
"<.<.% x c l.;XS R.R.Q c p.<.L f.f.~ f R g.j <X6X).yX&.'.L.B.j j.7.9.L.G.G.M A p.6.d.! ! :.j h D :.9.k.2.r._./.4.d ! D 4.F 5Xs = ",
"Q 9.:.D k.;.c 2.d.( s p OXf.% x.x.|.4 $ $ g.,X9.D r.r.c.l Z w >.8.8.F d.a.Y.A ` a.oXY.A I ( <.! ;.gX).2X2.L.-.G E.6.<.r.Z r.0 F ",
"( <.x.s Q k i p.p.: s s L 0XA s Y.}.J.=Xj Y.U.V #.4.k.d V +.n *.Z.A ( ! 7.oXE L ` 7.W OX{  XD q ;X7X'.B.P.B.U.5.:.! d 8.! a N p.",
"R.x.8.L.l.h , g.f + D ^ E x.R.( H.d.jX:.p.f.E ;.8.1.`  .Q v @.8.5.5.) N d.s.A jXg.1 6.}.h i.z @.v Q E.2XP.A.W.B.! A r 5.6.A k ! ",
"R.x.:.5.Y.T.d.d i./ Y.s.^ D L.Y.g.A j.x. X^ p E :.d A W I 6 l 8.I.5.P.B ` ! ! qXY.1.v.<.x.h.z.4.9XA #.).1X)./.5.A E 8.I.E.@.q._.",
"l 6.4.w E d L.<.h y :X;.D A :X@XE > A Y.R.T.p.E p.2.9.p.d Y.:.;X2XhXP.) d.T.8.J.c.k.@.k.>X:Xe.R.E 6.z.L.1X*.S.Q.! d #.2.{ 6 e.z ",
"8.d.&.2.g E j.i.6.Y.s * z.<./ x.7.m.f.j.a.c p.p.! P.6.:.B.-.S V 5.<XB.P.<XoX7.5XE.8.l.:.D XXR.D h ! 5.r.9.4.2.$XW 9.*.:.P c l.l ",
"v 5.4.Z - 2 Y c j.4XQ 1.;Xx h 1.p. .T +Xf.p ^ 1.:.d 6 <.Z.-.! F &.Q.B.J oXzXyXgXY.P.5XP.<Xd.<.d. X'.5.U.L.G.W G.j ).w.d.B S U.&.",
"q.U.iX<XA A 8.1. Xp.s.1.( s.~ { E ! 0X:XOXh.s.s.z.D Q D 2.Z L.6XsX` T.a.E.9.wXQ 7.! sX2X2.E.0 E Y.S.C.Z.8.! a.! r.D.U.E l.oX9.2X",
">.Y.aX<X5.l.1X!  Xn.A XXd.Y.:X^ j.8.A ^ 9Xs.s Q 8.c q :.9.F 5.:.6XaXT.A .XT.L.h E :.r.Z.E.I.5.p.6.5.=.A.z.6.a.! E.Z.Z e l R.5.7X",
"A V T.7.x.l.d.p.: L >X>.5X;X:.A L.eXA p.m.h.* A D 6 h ;X4.2.6.7.E.oXx.Y.J.&X) ` Y.8.Z.S.Z.n 5.j. X` e U.a.( W  .@XG.3.V l r.r.2.",
"A E j.Q <.d.! j.E m.>Xv 8.p.= c k.2.wXrXY p.<.XXl.> v i.:.s.p.:Xd.:.6.I Y.M B.J.j 9 r.Z.L.Z #.! 6.p.a..X~ ~ g ( P.P.P.) #.#.5.Z.",
"^ f m./ u.i.j.p./ p.;.:XE /  Xj.Y.F 9.1.{  X1.<.R.@.k.8.<.j { x.E.4.p.,.s.l Y.j.I p d.,XE.F 8.Z oXd.P.Z.! d ) 5.F Q.T.F 8.E..X( ",
";XY.x.j  Xc p g.( v.c.u | >X;X9.R.r.r.q.t.k.h U c ! x.l.s.s o c k.D j.x.D ).6.l.f.^ 5X! ;.E.5.-.6X% :.I.D 7.! (.r.6.J.w z.d.<X$X",
" X<.x.6.uX( { OXN / >Xy I R.;.s.d.D :Xk 1.x.+ ,.6 i.j.j / <.h :.w l I.;./ f.Y.E.j E z.r.>XoX0 -.3.6.p = ! d.6.F d.E p.A :.L.C.[.",
"f.E ` L.uXjXf.{ { p.k.Y i.k.s u.Y <.x.Y u U u U m./ Q / / u.1.;.e.U.).q f P ~ k.5.D 4.(.R.) 5XZ.L.2.j s.$X5.9 E ( j.! ;XI.+.C 5.",
"tX^ L -X.XoXd.Q :X@X).p.D 8.i.Y y / u x U b.U Y m.x p.p j / D ;X>.L.L.j.p.@Xj.j..XF %.1X5.T.oX6.8.6.;Xd.c d.M ` h Y.Y.,.c.L.) A ",
"` a.+X{ rXx.Q c.oXd.R.x.;.v ,.b.: Y u.x Y ,.c.,.U u.x.Q y c 1X_.l.p.f.R ` U.;Xu.T p.>.gXZ #.8.Q A d.k.;.8.d.@X6.9.E.8.u.h.f.) A.",
"p..X%X .n.:X! k ! Y.8.x p./ { / ( <.p.d.i.d.E.6.p.s.L { 1.XXs.! f.n.g.T  .d.j.x.^ E c 1Xw.*.4.6.j 7.:.;.! x.0X;X4.1X5Xm.L u.@X4X",
"eXJ.n.n.|.tXY l.d.F ! 6 s.x.( 1 I R.XXj.j f.OXE d.D * s.p.3X( d E { rX%X( E T 4Xn.p.6.2.8X6X:.> D I.V F 6.2.7.9.V Z A @X1 j <.>X",
"'.oX-X-X` j ! Q E.d.c p s.j.j p.Q d.! j.{ j.f.j j i.m.L ~ i.u.R.E 3 OXuXp.0X$Xd.j.j.;X9.r.E.` j.<.e.8.d.G.Z.Q.w l.8.3Xx.6.%XoXF ",
"U.P.K.g.7.Y.:.d.@XkX{ p u.j OX XoXA :.j.h.( u.j y n.i.f.b.n.Y 1.Q b.j.Q d.3X3XJ.6.:.E.D r.6XT.h j.:.V 2.P.U.dXU.9.Y.6XE.E.d.l.l ",
"%XP.U.aXqXiX#.T.j.g ....}.= j 0Xd.<.L.= s :Xc 1.Q h.A ! >X0Xx.>.XXE d oXd. XfX! 6.2.L.4.4.w.2.I {  .l Z 4.].S.hX'.Z E.]./.D 6 p ",
"P.lX|.a.T.P.) E..X, - f.Y ( u.X.}.9.4.s j % Q 6.d.i.x./ i x l.yXs.:.6.j.oXN 3Xl.! ,X'.#.@.z.! 7.7.q D r.L.-.3.B.I.Q.'.5.q I E p ",
"iXE.a.S B..XM G.) T.a.j = j.XXL .XtXp.~ E 6.oXs.E / Y h.u./ h.wX:.s.u.1.Q > A s.6.L.Z.E.L.P.P.) E.Z.:.2.B.L.P.D sX<X2.F 8.s p.p.",
"C.3.w 3.B.; ` ) F ) j.p.! 6.k.R.oXu.1 K :X;X0 i.j c Q x h.x.L ~ o L - j.@X0 6.h L.4X3.V.K.B.P.3.W.N.F A ! G ) l.L.7.A 9.Z F 9.6.",
"L.Z./.=.G f B 6.oXT.g ~ d.6.9.k.;Xj.  P 5XL.<.j.XX6.f.p.x.6.h.u.~ I ( j.;X0XoXj.I.G.S ' o.&.P.<XQ.) 5 d.T.l oXs.8.) E l.6.8.E.oX",
"! 4.^.S.! ( > ! Y.a.P } L d.9.;.5X<.:.Y.Y.! ! 7.7XwX6.D d.#XQ A x.x.Q m.Y.c s.d.4Xp s.G.[.B.E.6X.XN 0 ! Q 6.! v.@XJ.d.8.h p Y.D ",
"s.D D & d p.d ! j 3 #X0Xf. X#XE.;X! 6.$X1.Q Q 2.R.d.s.l x x.E p ~ { I c #Xj d.].pXG R.).Z.B.gX$Xd B ` ..K . ! s.! d.j.E / x.1.1.",
"X ! ` A N 3 g..XJ.g.3Xj.*Xf.j.5.8.%XG.Y.>.1.Q s.F 8.Y.<.;X:XXXp.m.m.(  Xn.~ ~ D F 5.V 9.>XG.K...B T B R f - F a.p.( R.k.c.5XY.! ",
"c p.` p.N   j..XT.kXeXd.j.x.XXd.d.T.oXY.;.E u + l x.s :.uXh 0 l.h.I x.XX<.Y.6.<.<.h f d.5X<XJ ' ` K.] d.! p 5Xg.+X6.k.@.1.;.1.s.",
"E h 3 T j.~  XXXoX0X;X5XQ p.5X3Xp.f d.d.Y.: u : ;.c.0 D 6.<.D s.b./ c v.d.6X1XE.Q I j E S W.iXB ' <X7.$Xv.l ;XN 3X#XXX/ s.s d.s.",
"~ ~ - % J.a.<.8.s.jX>Xc.:.:.R.x.*Xu.u.6.sX( [ 2 l.;.;.! p.1.h { b.m./ P ` oX2.;X5Xv ( L W &X4X! ^ ' ) G 6.Q Q V 5X:XtX~ y I tX1.",
"j.j.E j j.E x.f h @X8X8.h.x 9.4.kX*Xd.D l.h.U / XXA.D Q I L ~ 1.s.x Y I kXd.E c x.Q x.v.,X).%XT +Xa.l 9.! s.d.<.,Xp.p.#Xi.<.h.Y ",
"5.R.6Xk.l.d.j.( x.Y.D d.! p..X9.8.m.0Xw q k x l.;.c h.Q >X4.A 6 A ;./ R.XXx / h.6.5Xv.;.1XL.7.H.T %X2.,X,Xd T.R.l.! I 1.wXv.v ( ",
"a.j.Y.V :.d.Q <.l.L.E .XT ^ a.Y.l.u.Y.6.5 D l 8.<.! x ;.I.*.A 7.q 6 x.(.z i : x 9.Y.p.8.Q.2XH K.] 7.P.M Q.9.$X9.D x.! s.(.;.x | ",
"[ { { + #X6.R.k.9.U.A N W a |.P.G.9.! a.R..XE 1.,X8.w.`.9.j 8.E. Xd <.#.s.h.x.k.! 9.I h.aXaX&XiXb |.rX; j d.#X8.* d 6 j x i / v.",
"~ #X0Xx.oXoXs.;.w.].8.d w & E B.B.m 2.9.c A 0X^ Q > ;X_.t.9.fXd.i.c.e.D d I 8.I.G.j.{ L -X3X7.aX3 ^ +X- $ ! Q I L 2 h Q h.h Y s.",
".X( 6 c.z.oX2.! &.-.4.S.r.9 p G &.T.Y.:.8.oXx.;.s 4.pXZ.! Z.7XoX;X8X(.k.N > $ K.Y.( ~ f +X4X) ^ .X! j.j.! ! d.L - ~ s.#.eX XE j.",
"Q / @X;.0.9.` 6.D Z.=.S.-.! a.#.7Xx.;.R.).;XR.v ;.! F A n.A Y.D L.2.r.4.p.0Xa.` d I P f j.6.] K.L.8.d.p.* <.Y.A 1 { ,.3X).G.g.8.",
"j.<.k.8.c.v.x.l.#.r.*.+.w.B.G.E.v.V $./.'.B.9.2.q w 0 Q ~ Q v s.e N G.W j 6.x.E 4 [ [ f.p.p.rXN V 9.oX6.Q oX<.2.` j / XXL.[ #XY.",
"s.;Xz.k.i.s.8.z.z >.r.t.5.Z ( z.z.5 l S.M.[.C N.P.l #.r.d.R.d.6.! 0 a.L   wX#Xs.u ~ =Xm.p./ jX( 6.S c j.XXY.! a.^ h p s.~ n.n.s.",
"k.;Xz.R.i.v.@.1X$.q.D 8.G A a 2.oX.XC !.pXM.A.[.iXd 8.R.I Q T.aXaX( I R } 5Xx.u.:.E f.OXh./ 1.7.W p ^ P ( ( p.f.L p.<.z.c.E j.8X",
"h.s.1.Y.R.q I.e.8.Q 4.B.& <.7.F :.iXQ.iX!.H J V.B.F <.1X<.E oX6.^ j L L ^ f i.m.p./ ( 1.p. X<.y d > y G.r.6.1 aXR { .X{.L.1 / @X",
"v.;.6 <.! * 1.c.:.* Z d.N 6.2.L.U.Z.iXiXo.iXC.b 3.d.d.j.j Y.#Xj Q h h T j.OXu.XXm.2 E h <.E ! #X,.s 5.Y.A D =  XE g ! R.6.d.A d.",
"R.<.= E ;X<.l.! s k 0.:.x ;.1X4.w.5.V.V.J J H J A p.j.u.> p.! - p { g ~ E E ( d.s.E E A p.s.p.d.oXq S 3 *XOXL.d.@Xd x. .p.5XI.Z ",
"s j I ! @.9.p.6 s.k.0.R.! 0.;.3.9.3.-.M.o.C 3.b 8.! / <.#XE j ~ L o  .s.> E %XY.^ j.tX! 6 A Q.).,X~ E ` f.d.:.l s.<.Y.#X0Xp.d.L.",
"( f.@Xz.4.#.<.h s.D %.r.6.i.A S ) Z n {.J J T.r.9.8.4.@XQ o o { g.h.d.c.k.! g f { E .XN 6.'.pXZ.8.} -Xf.6.V A q >.s.R.8XgXI.2.l.",
"P E c.8.:.i.$.Z c k ~./.E p.N ! &././.F < p.a.j.L.r l Q <.! d.E c 9XY.p.3Xj.E ( l.d.P 4 %X[.W.Q..Xn..X .:X4.Z L.;.U Q 9.9.3.:.D ",
"1 = 9.).:.I ~.t.x 8.4.V > L.D k.].^.9 ! p.a ( @X3X:.6 Q c Y.).1./ E j.J...$ 1 #Xc.6 ~ a.$XP.N %X` .. XR K.#.k.Q 6.;.Q <.%Xd. XT.",
"Y v 4.A.5.<.4.q.#.8.A * 6 :.t.y.{.C.9 ! j i.{ / h.x.I <.p > p / h.j p N E .X|.R ! j > A 9.d.j.+X^ B 3XL  .E.W E <.1.q.].7.`  XA ",
"z.c.;.#.Z.2.<.l r d.E h D t %.^./.2.< E c 1.Q :Xk 6 l l.A u > i.<.c s p.fX#X^ ^ p.E Y.D ;.p.E f |.P = ~ %Xd. XP : D %.#.d.%X0X= ",
"^.>.x Y m.I [ s.*.D ;.(.>.R.8.8X+.2.E.6.,.l.;.>Xx s e.z.8.f.j Q l.:.Y.XXY.OX, |.XXA 2.v k.s.j i f.: 1.6.6.E.J.; c k.D F Y.6.d.F ",
"D 1.@.w z.z x.<.z s (.>X8.:Xv.8Xn F 8.;.l s.:.l v v.;.! Y.2.m.m.! :.).(.A |.J.! d g E h 6.dXZ I v.* s.d.c B.H N 6.z.e.s.s.9.9.B.",
"c 7 @.E.t.v.:.;.s v v v.R.XXz :.#.L.! D t :.7.q 7 ! I f.j ! :.d.0 s./ k v ! G.5X! J.T j R.5.w s.U Q A T.:.B.5.V 9./.w.4.<.E ) a.",
"! v V P.z e.k.8.k.s.i.* 7 z @.e.l.:.6 j ! 5.I.4.>.! A 1. XJ.T.6.6.6.h x <.* V L.R.oXd.V 9.7.) v 6 p Q.&X) 2.I.H N.-.+.A.5.A 8..X",
"0 >.v.L.v 7 D $.(.3Xv.i i v R.;.r._.Q Q k.8.Z *.$.q.4.Z.r.Z P 4 <.2./.l s R.<XI.! F F ! = ] d % 8 Q T.e 9 Z F N.B.b G.!.9.5.+.9.",
"1.5 6.:.I s.@.e.>.;XY k.8.9.>.#.r./.I.0 d.oX# #.c.1.9.4.d.$Xv <.! Y.(   + c.E.H ) ! Z 8.j ' .X{ Q 6 j 6.d , 2.P.V.K.3 ' W A l 8.",
"v s 8.! v (.>Xe.I.).s 9.z.z.c.:.#.$.:.z.l.d.2.4.t.s.! l c m.f.c : x.> % s.:.A qX6X4.).P.G.#XK.a.F Z ! D F ) 5.M.B O.R E J.g ! /.",
"k.6.R.e._.8X4.:.e.4.:.8.(.:.,.6 e.(.d I.R.2.k.z.z 6.0Xx j u.f.~ ,.Q E p.c 4X%XkX) 5.I.t.sXsXJ.) *.V 5 2.Q.F F.iX' ..a.8.).p.) =.",
"A 2.$.q.y.0.e.p.I.3.4.L.<./ | Y 4.I. .` l :.4.A 9.! XX#Xh u s.<.1.:Xp.A w oX.X] ! D q Y.C < a.p l 8.D pX'.G.=.2.B ) <X>.4.j.J.) ",
"` ].y.%.$.t k.= oX9.5.r k x p.1.Z :.-Xa.9.6.Q 1.! k.Q U j.s.3X8.z.k.b.+Xd.E.! / ! F :.2., < j j #  XL./.C.9.9 A a G.Y.>.l f ( T."
};
