/* XPM */
static char *xj8sm_du6jr[] = {
/* columns rows colors chars-per-pixel */
"64 64 200 2 ",
"   c #361A0F",
".  c #331C14",
"X  c #3C1D14",
"o  c #391E1B",
"O  c #3B2015",
"+  c #32221D",
"@  c #3D251B",
"#  c #362520",
"$  c #3C2621",
"%  c #362921",
"&  c #3C2B25",
"*  c #471D0E",
"=  c #431E14",
"-  c #442214",
";  c #4D2415",
":  c #4E2916",
">  c #44241B",
",  c #4B241A",
"<  c #432A1E",
"1  c #4C2A1C",
"2  c #522616",
"3  c #532917",
"4  c #582A16",
"5  c #532619",
"6  c #532A1C",
"7  c #5A2C1C",
"8  c #56311F",
"9  c #5B321E",
"0  c #612D1D",
"q  c #62321E",
"w  c #422620",
"e  c #432C24",
"r  c #4D2D23",
"t  c #422F2A",
"y  c #532D21",
"u  c #5A2E22",
"i  c #4C3225",
"p  c #45332B",
"a  c #4C352C",
"s  c #44382E",
"d  c #4D382C",
"f  c #543224",
"g  c #5C3324",
"h  c #573927",
"j  c #5D3927",
"k  c #54352A",
"l  c #5C3529",
"z  c #553A2C",
"x  c #5C3B2C",
"c  c #4D3A33",
"v  c #553C32",
"b  c #5C3C32",
"n  c #553F38",
"m  c #612F23",
"M  c #633424",
"N  c #6A3624",
"B  c #643A26",
"V  c #6B3A25",
"C  c #623529",
"Z  c #643B2B",
"A  c #6A3D2B",
"S  c #723B24",
"D  c #733E2A",
"F  c #7A3E2C",
"G  c #633D32",
"H  c #6A3E32",
"J  c #683E38",
"K  c #733E30",
"L  c #5F422E",
"P  c #564137",
"I  c #5D4234",
"U  c #5D433A",
"Y  c #5E483B",
"T  c #64422D",
"R  c #6D422C",
"E  c #74422D",
"W  c #7B432C",
"Q  c #7E482E",
"!  c #634234",
"~  c #6C4434",
"^  c #664A37",
"/  c #6D4935",
"(  c #654439",
")  c #6D453A",
"_  c #674A3A",
"`  c #6C4A3B",
"'  c #734533",
"]  c #7B4633",
"[  c #744A35",
"{  c #7C4A34",
"}  c #724739",
"|  c #784638",
" . c #744C3B",
".. c #7C4C3A",
"X. c #75513D",
"o. c #7C523C",
"O. c #7C583F",
"+. c #6B4E42",
"@. c #7B4E40",
"#. c #6E5043",
"$. c #735343",
"%. c #7C5442",
"&. c #7D5B46",
"*. c #73564B",
"=. c #77594D",
"-. c #7A5C4C",
";. c #7C5C54",
":. c #7E6354",
">. c #83452E",
",. c #89452F",
"<. c #844A2F",
"1. c #8A4A2F",
"2. c #844631",
"3. c #884630",
"4. c #844B34",
"5. c #8B4C34",
"6. c #834E3A",
"7. c #8C4E3A",
"8. c #914D34",
"9. c #924E39",
"0. c #835236",
"q. c #8C5235",
"w. c #84523B",
"e. c #8C533B",
"r. c #8D593E",
"t. c #935236",
"y. c #93543B",
"u. c #9A553B",
"i. c #95593D",
"p. c #9B5A3E",
"a. c #9C5737",
"s. c #A25C3D",
"d. c #AA5C3E",
"f. c #92613F",
"g. c #9C603E",
"h. c #A4623D",
"j. c #884F40",
"k. c #835542",
"l. c #8C5541",
"z. c #855B43",
"x. c #8C5B43",
"c. c #855648",
"v. c #845D49",
"b. c #8B5E49",
"n. c #925641",
"m. c #9A5741",
"M. c #955B42",
"N. c #9B5C42",
"B. c #925E4A",
"V. c #9C5E48",
"C. c #A05740",
"Z. c #A25D42",
"A. c #AD5F46",
"S. c #A25F48",
"D. c #876047",
"F. c #8F6246",
"G. c #85614B",
"H. c #8B634C",
"J. c #8E6A4E",
"K. c #956245",
"L. c #9C6144",
"P. c #93644C",
"I. c #9C644A",
"U. c #93694E",
"Y. c #9D6A4C",
"T. c #856554",
"R. c #8C6652",
"E. c #8E6A55",
"W. c #8D6C5A",
"Q. c #85685C",
"!. c #976751",
"~. c #996752",
"^. c #946B53",
"/. c #9A6C54",
"(. c #936E59",
"). c #9A6E59",
"_. c #967056",
"`. c #9A7155",
"'. c #96725B",
"]. c #9B735B",
"[. c #9E785D",
"{. c #A36345",
"}. c #AA6445",
"|. c #A36946",
" X c #AB6845",
".X c #A36549",
"XX c #A96549",
"oX c #A46A4B",
"OX c #AB6A4B",
"+X c #B26846",
"@X c #B26C4B",
"#X c #B16447",
"$X c #A3745C",
"%X c #A2795E",
"&X c #AA7558",
"*X c #9B7760",
"=X c #9E7960",
"-X c #A37C64",
";X c #A68164",
":X c #A68269",
/* pixels */
"f j / x / ..{ { o.x j Z A ' ]  .[ { l b z ! } [ T ' / 8 j ~ ..| ..} ....H ' ] 6.] 6.{ 0.{ R ~ / [ | w.}  . .B B ] 4.4.w.w.} ' x ",
"~ ..o.w.x.r.r.M..X/ / ] w.4.r.y.N.}.' ] ..{ w.r.i.K.I.Z j H / ) X./ ..l.| 9.i.N.i.u.u.p.Z.i.r.K.r.N.Y.Y.U.`.w.<.y.i.y.N.K.r.P.o.",
"' w.w.K.K.i.M.M.{.] 6.7.y.M.e.5.p.}.| 2.y.i.n.7..XZ.{.T G G ! ! ! b ( ! ' 9.t.M.N.N.p.i.s.i.z.U.b.M.P.~.^./.k.>.5.4.{ o.[ ! R [ ",
"E w.l.t.L.I.i.V.L...6.r.e.M.L.i.N.}.6.5.y.i.L.q..XN.XX{ 6.[ [  . .) ( ) [ y.y.5.i.{.m.i.s.i.D.D.H.U.P.b./._.k.2.5.0.w.[ ~  ./ ..",
"{ K.r.M.L.L.V.L.L.w.e.r.M.M.i.N.N.{.7.6.5.N.L.i.V.i.{.4.4.M.w.x.x.M.r.w.4.5.y.y.y.M.N.t.a.f.G.G.H.~.!.H./.'.v.3.0.4.i.i.0.0.w.w.",
"0.q.i.r.M.L.L.L.{.w.i.i.|..X|.{.{.OXt.n.i.y.}.XXL.{.OXq.y.i.i.V.I.i.M..Xn.7.n.N.i.p.p.y.a.Y.G.!.P.U./.U.U.%XH.<.a.t.i.p.i.p.L.F.",
"g , g 5 y 6 g 7 3 g V Q V S A { Q <.M 6 V 3 4 N 7 0 V 9 7 0 7 7 D q ; B M : g 9 3 8 4 0 3 A f I g f / ~ T ` [ ; N 0 y V N 6 V M ",
"X.c.w.w.] C H { R T Z B M f o o > k d d p t a M S D E R A ~ ) C 1 g x ! ) G h k 1 g D ] { [ ' R R B 6 g B B ~ R A Z g k I ^ ! / ",
"Y.B.L.|.}.9.u.|.a. X{.S.{.L.l b b ! / X.` ) ..i.9.u.{.C..X.X-X$X{ 7.y.y.L.n.n.q.w.{ t.u.g.p.g.}.}.Z.y.3.9.m.u.i.e.i.e.H.(././.&X",
"P.Y.n..X{.7.y.N.t.N.i.i.N.N.Z G { E ....w.w.w.r.B.l.M..XI.x./.).{ 9.q.y.p.i.y.i.i.4.t.t.p.u.p.p.p.p.3.2.9.7.t.y.7.5.7.x.R.U.P.M.",
"e.K.n.N.|.t.u.{.i.y.L.M.i.{.] 4.r.r.M.r.q.M.i.B.!./.b.^.!.(./.).4.i.4.i.V.M.p.i.i.3.y.i.i.Z.p.i.p.S.5.5.y.e.y.n.9.n.m.b.T.U.M.x.",
"i.V.I.L. Xy.u.{.L.V.N.L.N.V.4.7.t.L.f.L.M.n.N.b.E.E./.).].^.-X-X4.t.i.y.t..X{.p.p.5.9.i.p.C.|.{.i.C.7.2.q.y.t.r.7.y.y.l.r.e.q.i.",
"r.p.2.y..X5.i.i.M. Xy.N.N.N.>.3.5.5.{.q.N.N.N.c.R._.D.R.H.!.R.^.{ 2.q.<.g.q.t.q.m.>.<.q.1.i.i.y.i.N.1.>.q.Q y.t.7.y.9.4.o.0.<.e.",
"X 1 X X > @ , < X u 5 5 7 M y 5 5 * 3 - 6 u 7 g r z x r e a e e t o O   - 5 6 9 C u 6 6 ; : ; 5 2 2 3 3 2 = 2 5 , 7 u y < 8 O @ ",
"! a n U v n v P U x 6.6.M.n.N.V.i.m.~ G | n.r.N.N.w.p.R p b d P J P n c z r.i.L.I..XN.M.p.5.W 5.w.3.4.4.3.7.D D ] 4.6.] o.X.^ ~ ",
"l.' ) ) ! ! b b ` [ t.y.N.N.u.m.s.#Xe.H 4.7.i.i.u.u.h.0.x } $.Z  .) ) } [ u.u.p.XX{.u.{.h.p.1.t.u.t.s.8.s.Z.t.5.9.t.q.5.L.P.F.F.",
"x.l.r.x.} /  .b ! ~ l.n.y.N.{.i.C.}.0.D 4.e.y.n.y.y.s.7.] w.r.i.K.w.x.n.6.e.N.y.N.{.i.m.N.u.5.5.8.8.u.9.u.s.t.w.e.n.7.r.n.P.x.b.",
"z.n.L.K.r.n.P. .X.| y.n.y.u.N.N.N.XXi.4.4.5.M.i.y.i.p.8.5.r.r.L.L.{.{.Z.l.7.y.N.m.N.V.p.N.u.5.9.i.8.9.y.i.s.t.z.c.l.x.K.H.R.B.P.",
"r.M.V.V.L.S.L.K.M.r.9.i.n.V.L.N.N.{.y.2.e.5.y.M.i.i.i.t.e.i.i.N.L.L.N.|.y.r.i.N.M.N.N.p.Z.u.3.2.5.M.9.t.p.I.q.&.b.z.x.b.G.R.!.H.",
"F.I..Xp.OX@XS..XOXZ.y.N.N.{.{.h.Z.|.p.>.y.e.M.i.q.i.i.y.5.i.N.M.g.i.p.{.N.y.{.i.N.n.p.L.g.oXr.q.q.I.|.M.U.Y.U.b.P.b.H.^.H.H.J.!.",
"f r f 5 , f u 6 u y 6 C M 7 q 9 V M A , y = 3 7 3 4 M 7 6 7 M 4 7 3 9 3 g 5 g B 5 7 5 g = ' j ~ [ i ^ f X.h ! k b l r ! ^ p x ! ",
"x P v c & % s c s s p t & p #.*.*.-.T.Q.:.:.x ] 5.4.M.L.x.q.e.W W w.e.4.[ ) x k i B ' } ~ k k p & & ( #.&.$.%.$.` #.I y Z A G G ",
"E X. .X.G Z b ` ^ ( ` ` ` %.[.'.'.'.].].[.:Xk.5.s.i.s.{.{.C.}.Z.u.a.C.s.XXp.N.V.e.9.e.w.z./ ) ( P ( !.J./.Y.M.I.~.$XP.2.y.t.l.0.",
"4.M.y.M.{ w. .w.r.l...w.w.w.E.E.W.'.'.'._.=Xk.5.t.t.u.p.u.N.A.i.8.y.u.N.{.S.p.i.i.5.w.>.w... .! / ' x.B.q.7.t.y.t.i.7.>.7.e.e.w.",
"L.N.p.S.7.7.V.7.M.V.M.M.m.x.R.E.'.^./.`./.%Xw.5.t.i.i.{.i.t.{.a.3.p.p.N.p.N.{.Z.N.4.y.e.l.n.l.x.M.4.,.u.5.1.t.y.t.i.t.<.e.y.n.L.",
"N.N.p.Z.r.5.t.M.M.L.N.S..Xx.D.H.F.U.I.K.U.&Xw.5.t.i.u.p.p.i.p.u.8.p.{.N.{.N.p.Z.g.4.e.n.n.V.r.n.M.5.>.8.t.q.t.t.y.i.q.>.5.q.i.i.",
"Z.y.y.}.y.5.y.y.{.}.{.p.XXL.x.P.n.t.M.x.K.U.q.q.u.i.{.L.L.L.#XC.8.p.s.XXOXN.Z.#X{.8.p.x.V.{.L.M.L.M.2.y.8.y.C.u.u.s.u.5.i.N.L.i.",
"7 , , g u 5 m 7 5 0 9 4 S B 1 l j 1 k 1 j 6 8 : 3 ; 3 9 7 u N N 4 7 7 7 A M N B M M B g V E M R E R 7 B M 4 A H A ' { 9 7 M 7 N ",
"j | 4.l.w.r.7.w.y.] D 4.l.6.6. ./ ' B G } ) ! [ ) ( b l C [ D F j.] R ' C @ p t a a & & # @ m N Z Z A C B A 9 > y k ! G z i z j ",
"e.e.i.V.S.XXA.XX+XS.u.m.y.V.w..... .Z G G ) ! ` ) ' ~ { 9.a.s.8.m.Z.{.}.u.k z z I U Y P U G u.u.N.N.Z.C.m.A.{.] w.w.x.L.r.x.N.i.",
"9.7.M.y.N..Xs.{.}.i.q.N.4.w.| [ ~ ~ a a k v I I b ! x ' 3.8.u.u.9.9.u.s.q.i z v b ! +.b b J 6.9.8.8.y.u.u.s.u.4.l.7.m.5.N.i.m.i.",
"9.7.N.y.i.XXN.p.}.p.2.i.y.r.w.w...6.H b G ) [ w.o. .[ w.8.8.u.u.8.p.y.s.t.H ~ } .. .@.| ~ | 7.9.y.5.n.N.t.s.p.5.7.i.M.r.N.n.i.m.",
"7.5.i.V.N..X{.N.{.N.5.t.i.i.M.e.e.i.] { o.o.r.z.r.r.r.n.,.1.t.i.5.p.u.a.u.K | 6.w.r.l.l.{ 6.7.5.j.j.y.i.i.L.a.4.t.i.M.M.i.M.e.i.",
"M.y.C.Z.Z.Z.S.XXXX}.y.N.L.{.oXoXp.{.i.w.i.N.M.L.L.p.N.Z.3.a.i.n.Z.m..XS.S.2.7.e.n.L.M.l.l.9.9.9.5.m.L.p.K.Y.K.4.i.i.N.L.L.M.i.p.",
"V 5 M N ; m 7 D 0 m M S q R W E { W E 7 9 g 7 4 8 g M B 7 Z M A 4.] T [ { 0 S V M 2.N D D M ..4.w. .z.[ k.X.%.N M A q E A E N V ",
"[ / C z e l K ] ' ' ' Z Z g 5 m V E { 4.| ] N ) *.;.=.=.=.( ! I y C B Z ~ H C Z C > $ a r r i k Z r 6 f l B H ] B g y > f R R B ",
"N.N.i.K.r.] 2.l.i.N.y.n.M.S.8.8.a.s.8.s.s.d.s.R.'.'.'.].-X-X-X:Xl.8.N.S.V.V.S.S.@X! v ) / %.v.B.M.M.] y.M.{.{.XXi.N.x.} 6.M.i.{.",
"u.p.m.A.N.B x Z ' @.A / [ w.,.,.t.9.t.s.y.a.a.c.'.'.'.'.]._.*X=Xr.3.t.i.V.M.y.i.N.H G } ..w.l.n.n.N.4.y.5.i.L.p.m.i.y.D ] 5.i.C.",
"p.u.p.Z.p.f d k b v ! b Z ' <.8.t.5.y.t.u.a.u.H._.'.(./.`._.[.;Xw.7.e.y.V.t.y.S.N.K | ..k.n.L.M.u.N.4.y.t.n.t.V.M.i.N.6.6.2.9.N.",
"i.y.i.d.N.l k b x b ! x v ! >.1.4.i.i.5.9.u.y.b.J.P.U.K.Y.K.`.&X7.5.t.i.e.i.i.u.N...6.6.j.M..Xi.Z..X] 5.e.i.n.w.t.n.Z.6.4.y.5.N.",
"L.{.s.}. XW [ { .. ...X./ [ 4.t.8.t.L.p.i.i.h.K.K.M.L.{.|.g.Y.&Xi.9.i.N.w.i.L.N.L.w.e.q.n.i.{.p.{.XX3.i.y.n.L.L.i.p.L.x.w.i.K.L.",
"] 0 W S S 0 q N B ..V E R ] 6 g q 2 B E M B E Z R ..S E R o.[ 4.2.] 5.>.i.W 4.q.q.F D <.W ] E { F W D D o.W E W Q { 4...B ] E E ",
"k ! } ) ! Y T x e . @ < k x G l T g 9 A ] W R R R A Z @ + + % & $ $ # . ; 7 u M B B M M 7 5 l C A A l f j u - , 1 j 5 g y r 1 1 ",
"w.H.~./.).=X_.-XW.f R z.w.[ V.y.h.N.4.i.s. X X+X}.OX@X~ P L ^ I I Y Y I ~ 9.t.i.8.u.p.{.|.5.M.N.{.XXOXL.{.{.e.>.t.N.5.N.V.Y.I.x.",
"k.x.x.P.P.^.`.].(.B ] i.4.i.N.n.a.u.E t.y.s.Z.XXa.S.#X..' ..w.k.....o.w.<.t.y.y.y.3.8.p.C.,.t.N.p.N.S.p.Z.{.t.3.1.9.i.y.5.V.I.w.",
"l.B.x.P.~.(.U.].(.K 7.w.t.i.y.L.p.y.] y.u.s.N.{.S.{.+Xt.7.7.w.M.I.e.M.V.t.q.t.y.y.t.8.a.s.5.n.m.u.N.Z.N.a.{.q.3.t.3.9.V.r.l.K.z.",
"l.B.H.b.U.`._.[.(.] q.5.i.p.y.t.s.i.Q N.t.p.{.}.i.s.}.4.w.y.e.i.V.i.u.{.5.3.8.5.i.m.9.y.a.2.y.r.i.M.p.N.N.S.y.>.u.5.5.9.i.M.V.x.",
"z.P.U./.U.U.`.;X`.5.i.q.i.|.|.h. XC.4.N..XZ.|.h. X}.@Xy.y.n.M.L.V.L.N.XXq.8.y.5.t.u.u.n.Z.2.y.i.L.oX|.L.{.OXi.3.5.t.y.5.5.M.M.q.",
"Z [ ' Z { D.X.O.o.q W W S 4.5.S <.r.q F W W 2.t.>.4.y.>.W 5.5.2.2.Q 2.5.5.F q.4.4.1.2.x.0...4.e.y.q.i.q.i.t.i.D q.<.5.y.e.o.x...",
"B B u u 1 M M B A j 6 u 5 * 6 6 u C M q g 6 , 7 7 u g k u y 6 = g 9 g g 6 6 j f > 9 g B M j y g 7 - 6 1 M 1 1 > y , = f B > j j ",
"u.y.y.V.9.3.u.a.N.OXN.i.L.6.] n.I.i.{. X{.}.M.0.{.w.k.w.#.( ( ! i.V.l.I.K.w.x.M.6.7.a.N.|.|.{.|.L.r.$.z.H.H.T.-.T.T.` j { w.7.M.",
"i.9.y.u.8.1.y.u.u.u.p.i.p.4.F 2.y.M.t.p.u.p.i.2.y.r.{ ..~ G ! Z u.i.7.[ w. .} 6.2.9.u.Z.i.i.s.}.}.V.v.H.P.^.'.&./._.R.4.9.i.y.p.",
"i.t.t.i.5.5.y.i.p.p.i.p.{.2.] 2.5.i.i.{.i.N.i.5.t.l.x.M.k.6.w.} y.7.w.~ ( ) J ( ~ t.i.i.Z.N.y.h.s.L.D.G.v.R.(.E.(.).H.] 8.q.u.i.",
"y.e.0.i.5.3.t.t.p.s.y.p.h.{ E w.4.i.i.L.u.{.i.4.y.r.M.V.n.n.V.7.7.e.w.w.c. .` ) G t.y.u.i..XN.p.p.N.v.W.G.v.E.E.E.).R.2.8.7.y.i.",
"n.M.r.r.5.5.t.M.N.p.p.i.{.w.] q.y.i.p.L.{.{.N.5.9.M.M.n.n.I.|.4.e.u.N.y.M.l.k.x.w.8.y.m.N.{.s.i.h.L.G.D.^.H.J.^.(./.R.2.9.5.y.n.",
"5.e.<.q.W S <.4.q.q.t.q.a.W D 1.1.i.i.i.y.L.i.7.n.n.N.N.M.L.|.9.7.i.i.w.r.r.i.t.i.y.Z.N.p.Z.p.{.s.|.&.J.H.J.].J.D.[./.<.u.p.y.y.",
", > y b l f y 1 1 - , 6 1 @ + .   X X = , , , 1 f g 3 9 u u u g 6 7 g 1 1 = r , 6 u g V 6 M 7 q 3 B 1 x y r L ! e I I : 6 B 7 6 ",
"G #.&.v.W.W.T.W.W.H R [  ._ / ! b v x [ ..| | ..4.[ @.k i G ( ( ` X.` / G e v P ) X.H ' { R D W r.[ 7.] | 4.Z # & d a z c d v I ",
"' %.v.v.H.H.P.^.'.[ ,.5.7.j.r.w.]  .] 5.5.e.m.N.V.L.oX[ i v b I Y _ ~ ~ ~ H  .%.o.V.N.N. Xu.q.u.p.S.{..Xs.XXt.d I I ! ! ( )  .o.",
"[ &.&.b.P.!.J.U.'...3.t.y.i.M.e.r.r.4.7.y.n.7.M.i.p.}.[ d z b b U b P x ~ j.l.n.I.{.M.N.h.y.5.i.u.i.N.{.Z.Z.l.C / '  .X./  .%.w.",
"6.v.v.D.H.U.U.U.*XX.q.5.y.M.N.N.u.V.q.t.y.M.r.L.L.V.{.w.J } ! / ) ` / ) ..n.n.i.L.|.L.Z.{.u.5.M.N.N.V.i.p.{.i.] w.r.n.e.B.B.M.M.",
"e.z.z.x.r.K.U.Y.].4.1.y.i.y.V.y.i.V.q.e.5.i.N.Y.L.I.{.0.' k.6.{ k.w...6.6.n.i.N.L.L.{.i..Xi.4.i.L.K.I.N.M.I.r.2.7.y.M.K.I.n.n.x.",
"e.w.i.w.t.f.K.Y.~.5.4.t.i.K.N.p.L.L.w.n.r.r.n.K.N.N.L.r...w.l.x.l.l.M.x.7.V.V.i.N.L.}.p.{.V.w.L.K.Y.|.U.V..Xy.5.i.i.Z.L.M.N.i.r.",
"f j [ Z T [ E ] A B u B g R ~ R W ] Z j B B Z T Z R q k h R A ' } H ] ' H V ' 4.V W E { S ' g [ R R o.E ..' B B ' ] E 6.' ' T Z "
};
